<?xml version="1.0" encoding="UTF-8"?>
<svg width="16px" height="16px" viewBox="0 0 16 16" version="1.1" xmlns="http://www.w3.org/2000/svg" xmlns:xlink="http://www.w3.org/1999/xlink">
    <title>arrange-h</title>
    <defs>
        <linearGradient x1="50%" y1="0%" x2="50%" y2="100%" id="linearGradient-1">
            <stop stop-color="#EBF3FF" offset="0%"></stop>
            <stop stop-color="#E8E9FF" offset="100%"></stop>
        </linearGradient>
    </defs>
    <g id="V2.1.1" stroke="none" stroke-width="1" fill="none" fill-rule="evenodd">
        <g id="应用-创建应用-编排" transform="translate(-275.000000, -107.000000)">
            <rect id="矩形" fill="url(#linearGradient-1)" x="0" y="0" width="1920" height="1080"></rect>
            <path d="M250,0 L1920,0 L1920,0 L1920,1080 L230,1080 L230,20 C230,8.954305 238.954305,1.3527075e-15 250,0 Z" id="矩形" fill="#FFFFFF"></path>
            <rect id="矩形" fill="#F3F2FF" x="260" y="93" width="242" height="44" rx="8"></rect>
            <g id="编组-2" transform="translate(275.000000, 107.000000)" stroke="#5E3EFB" stroke-linecap="round" stroke-linejoin="round" stroke-width="1.5">
                <g id="设置配置_setting-config备份" transform="translate(1.000000, 1.500000)">
                    <line x1="13.2631579" y1="1.47368421" x2="11.0526316" y2="1.47368421" id="路径"></line>
                    <line x1="8.10526316" y1="0" x2="8.10526316" y2="2.94736842" id="路径"></line>
                    <line x1="8.10526316" y1="1.47368421" x2="0" y2="1.47368421" id="路径"></line>
                    <line x1="2.94736842" y1="6.63157895" x2="0" y2="6.63157895" id="路径"></line>
                    <line x1="5.89473684" y1="5.15789474" x2="5.89473684" y2="8.10526316" id="路径"></line>
                    <line x1="14" y1="6.63157895" x2="5.89473684" y2="6.63157895" id="路径"></line>
                    <line x1="13.2631579" y1="11.7894737" x2="11.0526316" y2="11.7894737" id="路径"></line>
                    <line x1="8.10526316" y1="10.3157895" x2="8.10526316" y2="13.2631579" id="路径"></line>
                    <line x1="8.10526316" y1="11.7894737" x2="0" y2="11.7894737" id="路径"></line>
                </g>
            </g>
            <g id="编组-2" transform="translate(275.000000, 107.000000)" stroke="#5E3EFB" stroke-linecap="round" stroke-linejoin="round" stroke-width="1.5">
                <g id="设置配置_setting-config备份" transform="translate(1.000000, 1.500000)">
                    <line x1="13.2631579" y1="1.47368421" x2="11.0526316" y2="1.47368421" id="路径"></line>
                    <line x1="8.10526316" y1="0" x2="8.10526316" y2="2.94736842" id="路径"></line>
                    <line x1="8.10526316" y1="1.47368421" x2="0" y2="1.47368421" id="路径"></line>
                    <line x1="2.94736842" y1="6.63157895" x2="0" y2="6.63157895" id="路径"></line>
                    <line x1="5.89473684" y1="5.15789474" x2="5.89473684" y2="8.10526316" id="路径"></line>
                    <line x1="14" y1="6.63157895" x2="5.89473684" y2="6.63157895" id="路径"></line>
                    <line x1="13.2631579" y1="11.7894737" x2="11.0526316" y2="11.7894737" id="路径"></line>
                    <line x1="8.10526316" y1="10.3157895" x2="8.10526316" y2="13.2631579" id="路径"></line>
                    <line x1="8.10526316" y1="11.7894737" x2="0" y2="11.7894737" id="路径"></line>
                </g>
            </g>
        </g>
    </g>
</svg>