<?xml version="1.0" encoding="UTF-8"?>
<svg width="16px" height="16px" viewBox="0 0 16 16" version="1.1" xmlns="http://www.w3.org/2000/svg" xmlns:xlink="http://www.w3.org/1999/xlink">
    <title>overview_h</title>
    <g id="V2.1.1" stroke="none" stroke-width="1" fill="none" fill-rule="evenodd">
        <g id="应用-创建应用-编排" transform="translate(-239.000000, -251.000000)" stroke="#5E3EFB" stroke-width="1.5">
            <g id="编组-11" transform="translate(239.000000, 251.000000)">
                <g id="编组-2" transform="translate(0.998474, 1.000000)">
                    <g id="预览-打开_preview-open-(1)" transform="translate(1.751168, 3.850000)" stroke-linejoin="round">
                        <path d="M5.24949937,6.29939924 C8.14871913,6.29939924 10.4989987,3.14969962 10.4989987,3.14969962 C10.4989987,3.14969962 8.14871913,0 5.24949937,0 C2.35027961,0 0,3.14969962 0,3.14969962 C0,3.14969962 2.35027961,6.29939924 5.24949937,6.29939924 Z" id="路径"></path>
                        <path d="M5.24949937,4.46207446 C5.97429775,4.46207446 6.56187421,3.874498 6.56187421,3.14969962 C6.56187421,2.42490124 5.97429775,1.83732478 5.24949937,1.83732478 C4.52470099,1.83732478 3.93712453,2.42490124 3.93712453,3.14969962 C3.93712453,3.874498 4.52470099,4.46207446 5.24949937,4.46207446 Z" id="路径"></path>
                    </g>
                    <path d="M9.99847412,0 L12,0 C13.1045695,0 14,0.8954305 14,2 L14,4" id="路径"></path>
                    <path d="M9.99856955,9.99856955 L12.0000954,9.99856955 C13.1046649,9.99856955 14.0000954,10.8940001 14.0000954,11.9985696 L14.0000954,13.9985696" id="路径备份-2" transform="translate(11.999332, 11.998570) rotate(90.000000) translate(-11.999332, -11.998570) "></path>
                    <path d="M0,0 L2.00152588,0 C3.10609538,0 4.00152588,0.8954305 4.00152588,2 L4.00152588,4" id="路径备份" transform="translate(2.000763, 2.000000) scale(-1, 1) translate(-2.000763, -2.000000) "></path>
                    <path d="M-9.54310904e-05,9.99856955 L2.00143045,9.99856955 C3.10599995,9.99856955 4.00143045,10.8940001 4.00143045,11.9985696 L4.00143045,13.9985696" id="路径备份-3" transform="translate(2.000668, 11.998570) scale(-1, 1) rotate(90.000000) translate(-2.000668, -11.998570) "></path>
                </g>
            </g>
        </g>
    </g>
</svg>