<?xml version="1.0" encoding="UTF-8"?>
<svg width="20px" height="20px" viewBox="0 0 20 20" version="1.1" xmlns="http://www.w3.org/2000/svg" xmlns:xlink="http://www.w3.org/1999/xlink">
    <title>preview-open</title>
    <g id="V1.2" stroke="none" stroke-width="1" fill="none" fill-rule="evenodd" stroke-linejoin="round">
        <g id="登录框" transform="translate(-1609.000000, -621.000000)" stroke="#9EADB9" stroke-width="2">
            <g id="编组" transform="translate(1609.000000, 621.000000)">
                <g id="预览-打开_preview-open" transform="translate(1.000000, 4.600000)">
                    <path d="M9,10.8 C13.970565,10.8 18,5.4 18,5.4 C18,5.4 13.970565,0 9,0 C4.029435,0 0,5.4 0,5.4 C0,5.4 4.029435,10.8 9,10.8 Z" id="路径"></path>
                    <path d="M9,7.65 C10.24263,7.65 11.25,6.64263 11.25,5.4 C11.25,4.15737 10.24263,3.15 9,3.15 C7.75737,3.15 6.75,4.15737 6.75,5.4 C6.75,6.64263 7.75737,7.65 9,7.65 Z" id="路径"></path>
                </g>
            </g>
        </g>
    </g>
</svg>