<?xml version="1.0" encoding="UTF-8"?>
<svg width="12px" height="12px" viewBox="0 0 12 12" version="1.1" xmlns="http://www.w3.org/2000/svg" xmlns:xlink="http://www.w3.org/1999/xlink">
    <title>Labels-h</title>
    <defs>
        <linearGradient x1="50%" y1="0%" x2="50%" y2="100%" id="linearGradient-1">
            <stop stop-color="#EBF3FF" offset="0%"></stop>
            <stop stop-color="#E8E9FF" offset="100%"></stop>
        </linearGradient>
    </defs>
    <g id="V2.1.1" stroke="none" stroke-width="1" fill="none" fill-rule="evenodd">
        <g id="应用" transform="translate(-1583.000000, -270.000000)">
            <rect id="矩形" fill="url(#linearGradient-1)" x="0" y="0" width="1920" height="1080"></rect>
            <path d="M250,0 L1920,0 L1920,0 L1920,1080 L230,1080 L230,20 C230,8.954305 238.954305,1.3527075e-15 250,0 Z" id="矩形" fill="#FFFFFF"></path>
            <path d="M250,0 L1920,0 L1920,0 L1920,1080 L230,1080 L230,20 C230,8.954305 238.954305,1.3527075e-15 250,0 Z" id="矩形" fill="#F7F8FC"></path>
            <rect id="矩形备份" fill="#FFFFFF" x="1481" y="142" width="378" height="160" rx="8"></rect>
            <text id="我是塔罗牌大师赛恩斯，我是一位经验丰富的" font-family="PingFangSC-Regular, PingFang SC" font-size="14" font-weight="normal" line-spacing="24" fill="#637381">
                <tspan x="1583" y="214">我是塔罗牌大师赛恩斯，我是一位经验丰</tspan>
                <tspan x="1583" y="238">富的塔罗牌大师，熟悉各种塔罗牌的牌…</tspan>
            </text>
            <g id="编组-5" transform="translate(1575.000000, 260.000000)">
                <rect id="矩形备份-25" fill="#F7F8FC" x="0" y="0" width="238" height="32" rx="8"></rect>
                <g id="标签备份-2" transform="translate(8.000000, 10.000000)" fill="#637381" fill-rule="nonzero">
                    <g id="编组-7">
                        <path d="M9.57615894,6.92250924 C9.57615894,6.69188193 9.50110375,6.49354245 9.34657837,6.31826569 L4.82560706,1.60424355 C4.66666666,1.43819189 4.44591611,1.29520296 4.18101544,1.17527676 C3.90728476,1.05535055 3.66445915,1 3.4437086,1 L0.812362027,1 C0.59161147,1 0.401766,1.08763839 0.242825603,1.25369005 C0.0838852054,1.41974171 0,1.61808119 0,1.8487085 L0,4.58856089 C0,4.8191882 0.0529801325,5.08210333 0.167770424,5.3588561 C0.282560715,5.64483396 0.410596026,5.86623618 0.57836645,6.03228784 L5.09933775,10.7555351 C5.25827815,10.9215867 5.44812362,10.9953875 5.66887417,10.9953875 C5.88962473,10.9953875 6.0794702,10.9169742 6.24724062,10.7555351 L9.34657837,7.51752769 C9.49227373,7.35147603 9.57615894,7.15313653 9.57615894,6.92250924 L9.57615894,6.92250924 L9.57615894,6.92250924 Z M2.59161148,3.71678968 C2.43267109,3.88284134 2.24282562,3.96125462 2.02207506,3.96125462 C1.8013245,3.96125462 1.61147903,3.88284134 1.45253864,3.71678968 C1.29359824,3.55073802 1.21854305,3.35239854 1.21854305,3.12177123 C1.21854305,2.89114392 1.29359824,2.69280444 1.45253864,2.52675278 C1.61147903,2.36070112 1.8013245,2.28228783 2.02207506,2.28228783 C2.24282562,2.28228783 2.43267109,2.36070112 2.59161148,2.52675278 C2.75055188,2.69280444 2.82119205,2.89114392 2.82119205,3.12177123 C2.83443709,3.35701108 2.75055188,3.55073802 2.59161148,3.71678968 L2.59161148,3.71678968 L2.59161148,3.71678968 Z M11.7704194,6.31365315 L7.24944812,1.60424355 C7.09050772,1.43819189 6.86975717,1.29520296 6.6048565,1.17527676 C6.33112583,1.05535057 6.08830023,1.00000001 5.86754967,1.00000001 L4.44591612,1.00000001 C4.66666668,1.00000001 4.9183223,1.05535057 5.18322297,1.17527677 C5.45695366,1.29520297 5.66887419,1.4289668 5.82781458,1.60424356 L10.3487859,6.31365315 C10.5077263,6.4889299 10.5827815,6.68726938 10.5827815,6.91789669 C10.5827815,7.148524 10.5077263,7.34686348 10.3487859,7.51291514 L7.38631347,10.6171587 C7.51434879,10.7509225 7.62913907,10.847786 7.7218543,10.9123616 C7.81456954,10.9769373 7.94260486,11 8.09271523,11 C8.31346579,11 8.50331126,10.9215867 8.67108168,10.7555351 L11.7704194,7.50830258 C11.9293598,7.34225092 12,7.14391144 12,6.91328413 C12,6.68265681 11.9249448,6.49354245 11.7704194,6.31365315 L11.7704194,6.31365315 L11.7704194,6.31365315 Z" id="形状"></path>
                    </g>
                </g>
            </g>
        </g>
    </g>
</svg>