<?xml version="1.0" encoding="UTF-8"?>
<svg width="20px" height="20px" viewBox="0 0 20 20" version="1.1" xmlns="http://www.w3.org/2000/svg" xmlns:xlink="http://www.w3.org/1999/xlink">
    <title>dialogue</title>
    <g id="V1.2" stroke="none" stroke-width="1" fill="none" fill-rule="evenodd">
        <g id="首页" transform="translate(-46.000000, -243.000000)" fill="#5E3EFB">
            <g id="信息_message" transform="translate(46.000000, 243.000000)">
                <path d="M10,0 C15.5228545,0 20,4.47714552 20,10 C20,15.5228345 15.5228545,19.99998 10,19.99998 L0,19.99998 L0,10 C0,4.47714552 4.47716552,0 10,0 Z M10.249996,13.999986 L4.749996,13.999986 C4.33578244,13.999986 3.999996,14.3357724 3.999996,14.749986 C3.999996,15.1641996 4.33578244,15.499986 4.749996,15.499986 L10.249996,15.499986 C10.6642096,15.499986 10.999996,15.1641996 10.999996,14.749986 C10.999996,14.3357724 10.6642096,13.999986 10.249996,13.999986 Z M14.249985,9.99999 L4.749996,9.99999 C4.33578244,9.99999 3.999996,10.3357764 3.999996,10.74999 C3.999996,11.1642036 4.33578244,11.49999 4.749996,11.49999 L14.249985,11.49999 C14.6641986,11.49999 14.999985,11.1642036 14.999985,10.74999 C14.999985,10.3357764 14.6641986,9.99999 14.249985,9.99999 Z M14.249985,5.999994 L4.749996,5.999994 C4.33578244,5.999994 3.999996,6.33578044 3.999996,6.749994 C3.999996,7.16420756 4.33578244,7.499994 4.749996,7.499994 L14.249985,7.499994 C14.6641986,7.499994 14.999985,7.16420756 14.999985,6.749994 C14.999985,6.33578044 14.6641986,5.999994 14.249985,5.999994 Z" id="形状结合"></path>
            </g>
        </g>
    </g>
</svg>