<?xml version="1.0" encoding="UTF-8"?>
<svg width="40px" height="40px" viewBox="0 0 40 40" version="1.1" xmlns="http://www.w3.org/2000/svg" xmlns:xlink="http://www.w3.org/1999/xlink">
    <title>user</title>
    <defs>
        <rect id="path-1" x="0" y="0" width="40" height="40" rx="20"></rect>
    </defs>
    <g id="V2.1.1" stroke="none" stroke-width="1" fill="none" fill-rule="evenodd">
        <g id="对话" transform="translate(-1654.000000, -113.000000)">
            <g id="编组-2" transform="translate(746.000000, 113.000000)">
                <g id="位图备份-4" transform="translate(908.000000, 0.000000)">
                    <mask id="mask-2" fill="white">
                        <use xlink:href="#path-1"></use>
                    </mask>
                    <use id="蒙版" fill="#EEEDFD" xlink:href="#path-1"></use>
                    <path d="M20,32.5 C16.1,32.5 12.4,30.78125 10,27.9166667 C12.4,25.0520833 16.1,23.3333333 20,23.3333333 C23.9,23.3333333 27.6,25.0520833 30,27.9166667 C27.6,30.78125 23.9,32.5 20,32.5 Z M20.4166667,21.6666667 C16.9986979,21.6666667 14.1666667,18.8346354 14.1666667,15.4166667 C14.1666667,11.9986979 16.9986979,9.16666667 20.4166667,9.16666667 C23.8346354,9.16666667 26.6666667,11.9986979 26.6666667,15.4166667 C26.6666667,18.8346354 23.8346354,21.6666667 20.4166667,21.6666667 Z" id="形状结合" fill="#5E3EFB" mask="url(#mask-2)"></path>
                </g>
            </g>
        </g>
    </g>
</svg>