<?xml version="1.0" encoding="UTF-8"?>
<svg width="24px" height="24px" viewBox="0 0 24 24" version="1.1" xmlns="http://www.w3.org/2000/svg" xmlns:xlink="http://www.w3.org/1999/xlink">
    <title>user</title>
    <defs>
        <linearGradient x1="50%" y1="0%" x2="50%" y2="100%" id="linearGradient-1">
            <stop stop-color="#EBF3FF" offset="0%"></stop>
            <stop stop-color="#E8E9FF" offset="100%"></stop>
        </linearGradient>
    </defs>
    <g id="V1.2" stroke="none" stroke-width="1" fill="none" fill-rule="evenodd">
        <g id="首页" transform="translate(-30.000000, -1036.000000)">
            <rect id="矩形" fill="url(#linearGradient-1)" x="0" y="0" width="1920" height="1080"></rect>
            <g id="编组" transform="translate(30.000000, 1036.000000)" fill="#120649">
                <path d="M12,0 C5.4,0 0,5.4 0,12 C0,18.6 5.4,24 12,24 C18.6,24 24,18.6 24,12 C24,5.4 18.6,0 12,0 Z M12,21.6 C9.075,21.6 6.3,20.25 4.5,18 C6.3,15.75 9.075,14.4 12,14.4 C14.925,14.4 17.7,15.75 19.5,18 C17.7,20.25 14.925,21.6 12,21.6 Z M12,13.2 C9.375,13.2 7.2,11.025 7.2,8.4 C7.2,5.775 9.375,3.6 12,3.6 C14.625,3.6 16.8,5.775 16.8,8.4 C16.8,11.025 14.625,13.2 12,13.2 Z" id="形状备份"></path>
            </g>
        </g>
    </g>
</svg>