<?xml version="1.0" encoding="UTF-8"?>
<svg width="20px" height="20px" viewBox="0 0 20 20" version="1.1" xmlns="http://www.w3.org/2000/svg" xmlns:xlink="http://www.w3.org/1999/xlink">
    <title>plug-in_h</title>
    <g id="V1.2" stroke="none" stroke-width="1" fill="none" fill-rule="evenodd">
        <g id="首页" transform="translate(-9.000000, -452.000000)" fill="#5E3EFB" fill-rule="nonzero">
            <g id="编组-12" transform="translate(9.000000, 452.000000)">
                <g id="插件管理备份" transform="translate(10.000000, 10.000000) rotate(-270.000000) translate(-10.000000, -10.000000) ">
                    <path d="M12.0525452,0 C10.8374384,0 9.85221675,0.985221675 9.85221675,2.20032841 L9.85221675,4.10509031 L4.43349754,4.10509031 C4.25212323,4.10509031 4.10509031,4.25212323 4.10509031,4.43349754 L4.10509031,9.85221675 L2.20032841,9.85221675 C0.985120583,9.85221675 0,10.8373373 0,12.0525452 C0,13.267753 0.985120583,14.2528736 2.20032841,14.2528736 L4.10509031,14.2528736 L4.10509031,19.6715928 C4.10509031,19.8522167 4.25287356,20 4.43349754,20 L7.84893268,20 L7.84893268,19.228243 C7.84893268,17.0262726 9.56321839,15.2233169 11.8095238,15.0853859 L12.0935961,15.0755337 L12.4006568,15.091954 C14.5316796,15.2967299 16.1581436,17.0874041 16.1576355,19.228243 L16.1576355,20 L19.6715928,20 C19.8529671,20 20,19.8529671 20,19.6715928 L20,4.43349754 C20,4.25212323 19.8529671,4.10509031 19.6715928,4.10509031 L14.2528736,4.10509031 L14.2528736,2.20032841 C14.2528736,0.985221675 13.2676519,0 12.0525452,0 L12.0525452,0 Z" id="路径"></path>
                </g>
            </g>
        </g>
    </g>
</svg>