<?xml version="1.0" encoding="UTF-8"?>
<svg width="14px" height="14px" viewBox="0 0 14 14" version="1.1" xmlns="http://www.w3.org/2000/svg" xmlns:xlink="http://www.w3.org/1999/xlink">
    <title>work room</title>
    <g id="V2.1.1" stroke="none" stroke-width="1" fill="none" fill-rule="evenodd">
        <g id="应用-创建应用-编排" transform="translate(-1117.000000, -108.000000)" fill="#5E3EFB" fill-rule="nonzero">
            <g id="编组-8" transform="translate(1117.000000, 108.000000)">
                <path d="M5.42479488,1.5070502 C5.57025162,1.19199346 5.87861664,0.983793152 6.22516704,0.966659029 C6.57171744,0.949524906 6.89911067,1.12629209 7.0749276,1.42546444 L7.11862815,1.50996397 L7.93495442,3.2885335 C8.37333643,4.24330945 9.12132332,5.02199807 10.0576358,5.49834204 L10.2242805,5.57876228 L12.0084283,6.3992819 C12.3234405,6.54392995 12.5322049,6.85143074 12.5504296,7.19762619 C12.5686543,7.54382163 12.3933301,7.87154758 12.0952467,8.04847973 L12.0113417,8.09218639 L10.1887374,8.93834727 C9.23595545,9.38062825 8.4604619,10.1317937 7.98797775,11.0700666 L7.90756875,11.2373174 L7.1197935,12.970432 C6.97596669,13.2871219 6.66784726,13.4974163 6.32055995,13.5159164 C5.97327264,13.5344165 5.64456125,13.3580462 5.46791274,13.0584281 L5.42362953,12.9739285 L4.60905129,11.200021 C4.17056162,10.2454624 3.42258646,9.46699135 2.48636993,8.99079524 L2.31972518,8.90979225 L0.542569513,8.0933519 C0.22695562,7.94809996 0.018282002,7.63937341 0.00114004525,7.29232274 C-0.0160019115,6.94527206 0.161231939,6.61747896 0.460995154,6.44182306 L0.545482881,6.39753364 L2.29117416,5.60148975 C3.24674865,5.16564831 4.02715748,4.41983378 4.50591799,3.48492207 L4.58749235,3.31825403 L5.42537754,1.5070502 L5.42479488,1.5070502 Z M12.1479633,0.0177527011 C12.1904385,0.0370683248 12.2239038,0.0711925941 12.2432107,0.113043109 L12.5791509,0.84510515 C12.6956359,1.09878364 12.899002,1.30224151 13.1532096,1.41942295 L13.886872,1.75680247 C13.955847,1.78872502 14,1.8578302 14,1.93386234 C14,2.00989448 13.955847,2.07899966 13.886872,2.1109222 L13.1403383,2.45731567 C12.8867743,2.57514095 12.6834082,2.77924268 12.5682103,3.03356504 L12.2432107,3.74824302 C12.2115542,3.81736608 12.1426405,3.86179118 12.0666421,3.86206897 C11.9906438,3.86234415 11.921409,3.81842163 11.8892508,3.74953073 L11.5545977,3.02068795 C11.4381958,2.76684912 11.2347762,2.56310924 10.9811826,2.44637015 L10.250738,2.1109222 C10.1818208,2.07887439 10.1377932,2.00968882 10.137931,1.93365656 C10.1380695,1.8576243 10.1823484,1.78859936 10.2513815,1.75680247 L10.970242,1.42843691 C11.2244496,1.31254318 11.4284593,1.10972916 11.5455878,0.855406817 L11.8898944,0.113043109 C11.9350523,0.015645758 12.0503866,-0.0269407393 12.1479633,0.0177527011 L12.1479633,0.0177527011 Z" id="形状"></path>
            </g>
        </g>
    </g>
</svg>