<?xml version="1.0" encoding="UTF-8"?>
<svg width="18px" height="18px" viewBox="0 0 18 18" version="1.1" xmlns="http://www.w3.org/2000/svg" xmlns:xlink="http://www.w3.org/1999/xlink">
    <title>upload</title>
    <g id="V2.1.1" stroke="none" stroke-width="1" fill="none" fill-rule="evenodd">
        <g id="应用-创建应用-弹窗" transform="translate(-672.000000, -775.000000)" fill="#9EADB9">
            <g id="编组-20" transform="translate(615.000000, 195.000000)">
                <g id="编组-18" transform="translate(30.000000, 553.000000)">
                    <g id="编组-22" transform="translate(27.000000, 27.000000)">
                        <path d="M9,0 C9.27614237,1.69088438e-17 9.5,0.223857625 9.5,0.5 L9.5,8.5 L17.5,8.5 C17.7761424,8.5 18,8.72385763 18,9 C18,9.27614237 17.7761424,9.5 17.5,9.5 L9.499,9.5 L9.5,17.5 C9.5,17.7761424 9.27614237,18 9,18 C8.72385763,18 8.5,17.7761424 8.5,17.5 L8.499,9.5 L0.5,9.5 C0.223857625,9.5 1.69088438e-17,9.27614237 0,9 C-3.38176876e-17,8.72385763 0.223857625,8.5 0.5,8.5 L8.5,8.5 L8.5,0.5 C8.5,0.223857625 8.72385763,-3.38176876e-17 9,0 Z" id="形状结合"></path>
                    </g>
                </g>
            </g>
        </g>
    </g>
</svg>