<?xml version="1.0" encoding="UTF-8"?>
<svg width="20px" height="20px" viewBox="0 0 20 20" version="1.1" xmlns="http://www.w3.org/2000/svg" xmlns:xlink="http://www.w3.org/1999/xlink">
    <title>work room</title>
    <g id="V1.2" stroke="none" stroke-width="1" fill="none" fill-rule="evenodd">
        <g id="首页" transform="translate(-47.000000, -340.000000)" fill="#484667" fill-rule="nonzero">
            <g id="编组-8" transform="translate(47.000000, 340.000000)">
                <path d="M7.74970697,2.15292885 C7.95750232,1.7028478 8.39802376,1.40541879 8.89309577,1.38094147 C9.38816777,1.35646415 9.85587238,1.6089887 10.1070394,2.03637777 L10.1694688,2.15709139 L11.3356492,4.697905 C11.9619092,6.06187064 13.0304619,7.17428296 14.3680511,7.85477434 L14.606115,7.96966041 L17.1548975,9.14183129 C17.6049151,9.34847136 17.9031499,9.78775821 17.9291852,10.2823231 C17.9552205,10.776888 17.7047573,11.245068 17.2789239,11.4978282 L17.1590595,11.5602663 L14.5553392,12.7690675 C13.1942221,13.4008975 12.0863741,14.473991 11.4113968,15.8143808 L11.2965268,16.0533105 L10.1711336,18.5291886 C9.9656667,18.9816027 9.52549609,19.2820233 9.02937136,19.308452 C8.53324663,19.3348807 8.06365893,19.0829231 7.81130391,18.6548972 L7.74804218,18.5341836 L6.58435899,16.00003 C5.95794516,14.6363749 4.88940923,13.5242734 3.55195705,12.8439932 L3.31389312,12.7282746 L0.775099304,11.5619313 C0.324222314,11.3544285 0.0261171458,10.9133906 0.00162863608,10.4176039 C-0.0228598736,9.92181724 0.230331341,9.45354138 0.658564506,9.20260437 L0.779261258,9.13933377 L3.27310594,8.00212821 C4.63821235,7.37949758 5.75308212,6.31404826 6.4370257,4.9784601 L6.5535605,4.7403629 L7.75053935,2.15292885 L7.74970697,2.15292885 Z M17.3542333,0.0253610015 C17.4149122,0.0529547498 17.4627198,0.101703706 17.4903011,0.161490156 L17.9702156,1.20729307 C18.1366228,1.56969092 18.4271457,1.86034502 18.7902994,2.02774707 L19.8383886,2.50971782 C19.9369243,2.55532146 20,2.65404314 20,2.76266048 C20,2.87127782 19.9369243,2.96999951 19.8383886,3.01560315 L18.7719119,3.51045095 C18.4096776,3.67877278 18.1191546,3.97034669 17.9545862,4.33366435 L17.4903011,5.35463288 C17.4450774,5.45338011 17.3466293,5.51684455 17.2380602,5.51724138 C17.1294911,5.5176345 17.0305842,5.45488804 16.984644,5.35647247 L16.5065682,4.31526851 C16.3402798,3.9526416 16.0496803,3.66158463 15.6874037,3.4948145 L14.6439114,3.01560315 C14.5454583,2.96982055 14.4825617,2.87098404 14.4827586,2.76236651 C14.4829565,2.65374899 14.5462119,2.55514195 14.6448308,2.50971782 L15.6717743,2.04062415 C16.034928,1.87506169 16.3263704,1.58532737 16.4936969,1.22200974 L16.9855634,0.161490156 C17.0500747,0.0223510829 17.214838,-0.0384867704 17.3542333,0.0253610015 L17.3542333,0.0253610015 Z" id="形状"></path>
            </g>
        </g>
    </g>
</svg>