<?xml version="1.0" encoding="UTF-8"?>
<svg width="48px" height="48px" viewBox="0 0 48 48" version="1.1" xmlns="http://www.w3.org/2000/svg" xmlns:xlink="http://www.w3.org/1999/xlink">
    <title>API</title>
    <g id="V1.3" stroke="none" stroke-width="1" fill="none" fill-rule="evenodd">
        <g id="知识库" transform="translate(-707.000000, -360.000000)">
            <g id="编组-20" transform="translate(707.000000, 360.000000)">
                <rect id="矩形备份-22" fill="#EEEDFD" x="0" y="0" width="48" height="48" rx="8"></rect>
                <g id="API接口" transform="translate(11.000000, 11.000000)" fill="#005BFF" fill-rule="nonzero">
                    <path d="M17.7261433,0 C18.116587,0 18.436041,0.319279574 18.436041,0.709510165 L18.436041,3.09701187 L20.3314676,3.09701187 C21.70157,3.09701187 22.8161092,4.21094283 22.8161092,5.58029745 L22.8161092,7.59530632 L25.2901024,7.59530632 C25.6805461,7.59530632 26,7.91458589 26,8.30481648 C26,8.69504707 25.6805461,9.01432665 25.2901024,9.01432665 L22.8161092,9.01432665 L22.8161092,10.6639378 L25.2901024,10.6639378 C25.6805461,10.6639378 26,10.9832174 26,11.3734479 C26,11.7636785 25.6805461,12.0829581 25.2901024,12.0829581 L22.8161092,12.0829581 L22.8161092,13.7325692 L25.2901024,13.7325692 C25.6805461,13.7325692 26,14.0518488 26,14.4420794 C26,14.83231 25.6805461,15.1515896 25.2901024,15.1515896 L22.8161092,15.1515896 L22.8161092,16.8012007 L25.2901024,16.8012007 C25.6805461,16.8012007 26,17.1204803 26,17.5107109 C26,17.9009415 25.6805461,18.220221 25.2901024,18.220221 L22.8161092,18.220221 L22.8161092,20.2352299 C22.8161092,21.6045845 21.70157,22.7185155 20.3314676,22.7185155 L18.4828942,22.7185155 L18.4828942,25.2904898 C18.4828942,25.6807204 18.1634403,26 17.7729966,26 C17.3825529,26 17.063099,25.6807204 17.063099,25.2904898 L17.063099,22.7185155 L15.412587,22.7185155 L15.412587,25.2904898 C15.412587,25.6807204 15.0931331,26 14.7026894,26 C14.3122457,26 13.9927918,25.6807204 13.9927918,25.2904898 L13.9927918,22.7185155 L12.3422799,22.7185155 L12.3422799,25.2904898 C12.3422799,25.6807204 12.0228259,26 11.6323823,26 C11.2419386,26 10.9224846,25.6807204 10.9224846,25.2904898 L10.9224846,22.7185155 L9.2719727,22.7185155 L9.2719727,25.2904898 C9.2719727,25.6807204 8.95251877,26 8.56207509,26 C8.1716314,26 7.85217747,25.6807204 7.85217747,25.2904898 L7.85217747,22.7185155 L5.66853242,22.7185155 C4.29843003,22.7185155 3.18389078,21.6045845 3.18389078,20.2352299 L3.18389078,18.220221 L0.709897611,18.220221 C0.319453925,18.220221 0,17.9009415 0,17.5107109 C0,17.1204803 0.319453925,16.8012007 0.709897611,16.8012007 L3.18389078,16.8012007 L3.18389078,15.1515896 L0.709897611,15.1515896 C0.319453925,15.1515896 0,14.83231 0,14.4420794 C0,14.0518488 0.319453925,13.7325692 0.709897611,13.7325692 L3.18389078,13.7325692 L3.18389078,12.0829581 L0.709897611,12.0829581 C0.319453925,12.0829581 0,11.7636785 0,11.3734479 C0,10.9832174 0.319453925,10.6639378 0.709897611,10.6639378 L3.18389078,10.6639378 L3.18389078,9.01432665 L0.709897611,9.01432665 C0.319453925,9.01432665 0,8.69504707 0,8.30481648 C0,7.91458589 0.319453925,7.59530632 0.709897611,7.59530632 L3.18389078,7.59530632 L3.18389078,5.58029745 C3.18389078,4.21094283 4.29843003,3.09701187 5.66853242,3.09701187 L7.80532423,3.09701187 L7.80532423,0.709510165 C7.80532423,0.319279574 8.12477816,0 8.51522184,0 C8.90566553,0 9.22511945,0.319279574 9.22511945,0.709510165 L9.22511945,3.09701187 L10.8756314,3.09701187 L10.8756314,0.709510165 C10.8756314,0.319279574 11.1950853,0 11.585529,0 C11.9759727,0 12.2954266,0.319279574 12.2954266,0.709510165 L12.2954266,3.09701187 L13.9459386,3.09701187 L13.9459386,0.709510165 C13.9459386,0.319279574 14.2653925,0 14.6558362,0 C15.0462799,0 15.3657338,0.319279574 15.3657338,0.709510165 L15.3657338,3.09701187 L17.0162457,3.09701187 L17.0162457,0.709510165 C17.0162457,0.319279574 17.3356997,0 17.7261433,0 Z M9.52872125,9.44499932 L8.2126981,9.44499932 L5.81548123,15.6205758 L7.13639665,15.6205758 L7.6451937,14.2165894 L10.1060102,14.2165894 L10.6441609,15.6205758 L11.99443,15.6205758 L9.52872125,9.44499932 Z M14.724015,9.44499932 L12.7213652,9.44499932 L12.7213652,15.6205758 L13.9650646,15.6205758 L13.9650646,13.2936893 L14.777876,13.2936893 C15.3409683,13.2936893 15.7718563,13.264235 16.07054,13.2053265 C16.2908804,13.1562361 16.5063244,13.0580552 16.716872,12.9107839 C16.9274195,12.7635126 17.1036919,12.5622418 17.2407926,12.3020625 C17.3778933,12.0418832 17.4464437,11.7227954 17.4464437,11.3447991 C17.4464437,10.8538947 17.3289288,10.4513532 17.0890025,10.1420835 C16.8490762,9.83281374 16.555289,9.63154296 16.2027443,9.53827114 C15.9726109,9.47445358 15.478069,9.44499932 14.724015,9.44499932 Z M19.6272491,9.44499932 L18.3551126,9.44499932 L18.3551126,15.6205758 L19.6272491,15.6205758 L19.6272491,9.44499932 Z M8.7152743,10.8980761 L9.63189078,13.259326 L7.8145529,13.259326 L8.7152743,10.8980761 Z M15.3013359,10.3988347 C15.5009186,10.4343498 15.6664261,10.5307481 15.7978586,10.6829558 C15.9292911,10.8351636 15.9925734,11.0279601 15.9925734,11.2562717 C15.9925734,11.4439947 15.9438947,11.6114232 15.8514052,11.7534838 C15.7589157,11.8955444 15.6274832,12.0020898 15.4668435,12.0680465 C15.3013359,12.1340032 14.9751887,12.1695184 14.4884018,12.1695184 L13.8117679,12.1695184 L13.8117679,10.3531723 L14.4105158,10.3531723 C14.8583598,10.3531723 15.150432,10.3683931 15.3013359,10.3988347 Z" id="形状结合"></path>
                </g>
            </g>
        </g>
    </g>
</svg>