<?xml version="1.0" encoding="UTF-8"?>
<svg width="48px" height="48px" viewBox="0 0 48 48" version="1.1" xmlns="http://www.w3.org/2000/svg" xmlns:xlink="http://www.w3.org/1999/xlink">
    <title>htm</title>
    <g id="V1.3" stroke="none" stroke-width="1" fill="none" fill-rule="evenodd">
        <g id="知识库" transform="translate(-310.000000, -360.000000)">
            <g id="编组-18" transform="translate(310.000000, 360.000000)">
                <rect id="矩形备份-20" fill="#E6F5FE" x="0" y="0" width="48" height="48" rx="8"></rect>
                <g id="网页控网页" transform="translate(11.000000, 12.000000)" fill="#13ABF1" fill-rule="nonzero">
                    <path d="M26,7.42857143 L0,7.42857143 L0,2.47619048 C0,1.10862824 1.10862824,0 2.47619048,0 L23.5238095,0 C24.8913718,0 26,1.10862824 26,2.47619048 L26,7.42857143 Z M6.19047619,3.71428571 C6.19047619,3.0305046 5.63616207,2.47619048 4.95238095,2.47619048 C4.26859983,2.47619048 3.71428571,3.0305046 3.71428571,3.71428571 C3.71428571,4.39806683 4.26859983,4.95238095 4.95238095,4.95238095 C5.63616207,4.95238095 6.19047619,4.39806683 6.19047619,3.71428571 Z M9.9047619,4.95238095 C10.588543,4.95238095 11.1428571,4.39806683 11.1428571,3.71428571 C11.1428571,3.0305046 10.588543,2.47619048 9.9047619,2.47619048 C9.22098079,2.47619048 8.66666667,3.0305046 8.66666667,3.71428571 C8.66666667,4.39806683 9.22098079,4.95238095 9.9047619,4.95238095 Z M0,9.9047619 L26,9.9047619 L26,21.047619 C26,22.4151813 24.8913718,23.5238095 23.5238095,23.5238095 L2.47619048,23.5238095 C1.10862824,23.5238095 0,22.4151813 0,21.047619 L0,9.9047619 Z" id="形状"></path>
                </g>
            </g>
        </g>
    </g>
</svg>