<?xml version="1.0" encoding="UTF-8"?>
<svg width="48px" height="48px" viewBox="0 0 48 48" version="1.1" xmlns="http://www.w3.org/2000/svg" xmlns:xlink="http://www.w3.org/1999/xlink">
    <title>general</title>
    <g id="V1.3" stroke="none" stroke-width="1" fill="none" fill-rule="evenodd">
        <g id="知识库" transform="translate(-1104.000000, -360.000000)">
            <g id="编组-22" transform="translate(1104.000000, 360.000000)">
                <rect id="矩形备份-23" fill="#EEEDFD" x="0" y="0" width="48" height="48" rx="8"></rect>
                <g id="文档备份-14" transform="translate(13.000000, 11.000000)" fill="#7C67EE" fill-rule="nonzero">
                    <path d="M14.1565217,0 C14.5391304,0 14.7304348,0.379562044 14.7304348,0.569343066 L14.7304348,3.60583942 C14.7304348,5.88321168 16.6434783,7.59124088 18.7478261,7.59124088 L18.7478261,7.40145985 L21.426087,7.40145985 C21.8086957,7.40145985 22,7.7810219 22,7.97080292 L22,23.3430657 C22,24.8613139 20.8521739,26 19.3217391,26 L2.67826087,26 C1.14782609,26 0,24.8613139 0,23.3430657 L0,2.65693431 C0,1.13868613 1.14782609,0 2.67826087,0 Z M17.9826087,19.9270073 L4.0173913,19.9270073 C3.63478261,19.9270073 3.44347826,20.3065693 3.44347826,20.4963504 L3.44347826,20.8759124 C3.44347826,21.2554745 3.82608696,21.4452555 4.0173913,21.4452555 L18.173913,21.4452555 C18.3652174,21.4452555 18.5565217,21.2554745 18.5565217,20.8759124 L18.5565217,20.4963504 C18.5565217,20.1167883 18.173913,19.9270073 17.9826087,19.9270073 Z M17.9826087,15.3722628 L4.0173913,15.3722628 C3.63478261,15.3722628 3.44347826,15.7518248 3.44347826,15.9416058 L3.44347826,16.3211679 C3.44347826,16.7007299 3.82608696,16.8905109 4.0173913,16.8905109 L18.173913,16.8905109 C18.3652174,16.8905109 18.5565217,16.7007299 18.5565217,16.3211679 L18.5565217,15.9416058 C18.5565217,15.5620438 18.173913,15.3722628 17.9826087,15.3722628 Z M17.9826087,11.0072993 L4.0173913,11.0072993 C3.63478261,11.0072993 3.44347826,11.3868613 3.44347826,11.5766423 L3.44347826,11.7664234 C3.44347826,12.1459854 3.82608696,12.3357664 4.0173913,12.3357664 L18.173913,12.3357664 C18.3652174,12.3357664 18.5565217,12.1459854 18.5565217,11.9562044 L18.5565217,11.5766423 C18.5565217,11.1970803 18.173913,11.0072993 17.9826087,11.0072993 Z M16.0695652,1.7080292 C16.0695652,1.13868613 16.8347826,0.759124088 17.026087,1.13868613 L20.8521739,4.93430657 C21.426087,5.31386861 21.0434783,6.0729927 20.4695652,6.0729927 L18.7478261,6.0729927 C17.2173913,6.0729927 16.0695652,4.93430657 16.0695652,3.41605839 Z" id="形状结合"></path>
                </g>
            </g>
        </g>
    </g>
</svg>