<?xml version="1.0" encoding="UTF-8"?>
<svg width="20px" height="20px" viewBox="0 0 20 20" version="1.1" xmlns="http://www.w3.org/2000/svg" xmlns:xlink="http://www.w3.org/1999/xlink">
    <title>find</title>
    <g id="V1.2" stroke="none" stroke-width="1" fill="none" fill-rule="evenodd">
        <g id="首页" transform="translate(-46.000000, -187.000000)" fill="#484667" fill-rule="nonzero">
            <g id="发现" transform="translate(46.000000, 187.000000)">
                <path d="M10,3.33066907e-16 C15.52275,3.33066907e-16 20,4.47724999 20,10 C20,15.52275 15.52275,20 10,20 C4.47725001,20 3.33066907e-16,15.52275 3.33066907e-16,10 C3.33066907e-16,4.47725001 4.47725001,3.33066907e-16 10,3.33066907e-16 Z M13.496,5.22425001 L8.41,7.05524999 C7.77905383,7.28245708 7.28234065,7.77926193 7.05524999,8.41025001 L5.22425001,13.496 C5.09292719,13.8605137 5.18398302,14.2680828 5.45795011,14.5420499 C5.7319172,14.816017 6.13948628,14.9070728 6.50399999,14.77575 L11.59,12.94475 C12.2209462,12.7175429 12.7176593,12.2207381 12.94475,11.58975 L14.77575,6.50399999 C14.9070728,6.13948628 14.816017,5.7319172 14.5420499,5.45795011 C14.2680828,5.18398302 13.8605137,5.09292719 13.496,5.22425001 L13.496,5.22425001 Z M10,11.25 C10.6903559,11.25 11.2500001,10.6903559 11.2500001,10 C11.2500001,9.30964407 10.6903559,8.75000001 10,8.75000001 C9.30964409,8.75000001 8.75000006,9.30964409 8.75000006,10 C8.75000006,10.6903559 9.30964409,11.25 10,11.25 L10,11.25 Z" id="形状"></path>
            </g>
        </g>
    </g>
</svg>