<?xml version="1.0" encoding="UTF-8"?>
<svg width="20px" height="20px" viewBox="0 0 20 20" version="1.1" xmlns="http://www.w3.org/2000/svg" xmlns:xlink="http://www.w3.org/1999/xlink">
    <title>repository</title>
    <g id="V1.2" stroke="none" stroke-width="1" fill="none" fill-rule="evenodd">
        <g id="首页" transform="translate(-46.000000, -396.000000)" fill="#484667">
            <g id="编组-10" transform="translate(46.000000, 396.000000)">
                <path d="M18.3333275,12.5000188 L17.0833256,12.5000188 L17.0833256,11.6667175 C17.0833256,10.2500154 16.000024,9.16671375 14.5833219,9.16671375 L10.8333162,9.16671375 L10.8333162,7.50001125 L12.0833181,7.50001125 C13.0000195,7.50001125 13.7500206,6.75001013 13.7500206,5.83330875 L13.7500206,1.6667025 C13.7500206,0.750001125 13.0000195,0 12.0833181,0 L7.91661187,0 C7.0000105,0 6.25000938,0.750001125 6.25000938,1.6667025 L6.25000938,5.83330875 C6.25000938,6.75001013 7.0000105,7.50001125 7.91661187,7.50001125 L9.16661375,7.50001125 L9.16661375,9.16671375 L5.41660812,9.16671375 C4,9.16671375 2.91660437,10.2500154 2.91660437,11.6667175 L2.91660437,12.2500184 C2.91660437,12.3333185 2.91660437,12.4167186 3,12.5000188 L1.6666025,12.5000188 C0.750001125,12.5000188 0,13.2500199 0,14.1667213 L0,18.3333275 C0,19.2500289 0.750001125,20.00003 1.6666025,20.00003 L5.83330875,20.00003 C6.75001013,20.00003 7.50001125,19.2500289 7.50001125,18.3333275 L7.50001125,14.1667213 C7.50001125,13.2500199 6.75001013,12.5000188 5.83330875,12.5000188 L4.5,12.5000188 C4.5,12.4167186 4.58330687,12.3333185 4.58330687,12.2500184 L4.58330687,11.6667175 C4.58330687,11.1667168 4.91660737,10.8333162 5.41660812,10.8333162 L14.5833219,10.8333162 C15.0833226,10.8333162 15.4166231,11.1667168 15.4166231,11.6667175 L15.4166231,12.5000188 L14.1666212,12.5000188 C13.2500199,12.5000188 12.5000188,13.2500199 12.5000188,14.1667213 L12.5000188,18.3333275 C12.5000188,19.2500289 13.2500199,20.00003 14.1666212,20.00003 L18.3333275,20.00003 C19.2500289,20.00003 20.00003,19.2500289 20.00003,18.3333275 L20.00003,14.1667213 C20.00003,13.2500199 19.2500289,12.5000188 18.3333275,12.5000188 Z" id="Fill-1"></path>
            </g>
        </g>
    </g>
</svg>