<?xml version="1.0" encoding="UTF-8"?>
<svg width="12px" height="12px" viewBox="0 0 12 12" version="1.1" xmlns="http://www.w3.org/2000/svg" xmlns:xlink="http://www.w3.org/1999/xlink">
    <title>add</title>
    <g id="V2.1.1" stroke="none" stroke-width="1" fill="none" fill-rule="evenodd">
        <g id="应用-创建应用-编排" transform="translate(-1147.000000, -371.000000)" fill="#637381">
            <g id="编组-5备份" transform="translate(1147.000000, 370.000000)">
                <g id="编组-12" transform="translate(0.000000, 1.000000)">
                    <path d="M6,0 C6.27614237,-5.07265313e-17 6.5,0.223857625 6.5,0.5 L6.5,5.499 L11.5,5.5 C11.7761424,5.5 12,5.72385763 12,6 C12,6.27614237 11.7761424,6.5 11.5,6.5 L6.5,6.499 L6.5,11.5 C6.5,11.7761424 6.27614237,12 6,12 C5.72385763,12 5.5,11.7761424 5.5,11.5 L5.5,6.499 L0.5,6.5 C0.223857625,6.5 0,6.27614237 0,6 C0,5.72385763 0.223857625,5.5 0.5,5.5 L5.5,5.499 L5.5,0.5 C5.5,0.223857625 5.72385763,3.38176876e-17 6,0 Z" id="形状结合"></path>
                </g>
            </g>
        </g>
    </g>
</svg>