<?xml version="1.0" encoding="UTF-8"?>
<svg width="22px" height="22px" viewBox="0 0 22 22" version="1.1" xmlns="http://www.w3.org/2000/svg" xmlns:xlink="http://www.w3.org/1999/xlink">
    <title>send_h</title>
    <defs>
        <linearGradient x1="50%" y1="0%" x2="50%" y2="100%" id="linearGradient-1">
            <stop stop-color="#EBF3FF" offset="0%"></stop>
            <stop stop-color="#E8E9FF" offset="100%"></stop>
        </linearGradient>
    </defs>
    <g id="V1.2" stroke="none" stroke-width="1" fill="none" fill-rule="evenodd">
        <g id="首页" transform="translate(-1678.000000, -982.000000)">
            <rect id="矩形" fill="#FFFFFF" x="1655" y="699" width="188" height="568" rx="8"></rect>
            <rect id="矩形" fill="url(#linearGradient-1)" x="0" y="0" width="1920" height="1080"></rect>
            <path d="M250,0 L1920,0 L1920,0 L1920,1080 L230,1080 L230,20 C230,8.954305 238.954305,1.3527075e-15 250,0 Z" id="矩形" fill="#FFFFFF"></path>
            <path d="M540,0 L1920,0 L1920,0 L1920,1080 L520,1080 L520,20 C520,8.954305 528.954305,1.3527075e-15 540,0 Z" id="矩形" fill="#F7F8FC"></path>
            <g id="搜索_search-(1)备份-2" transform="translate(1678.000000, 982.000000)" fill="#5E3EFB">
                <path d="M20.170417,9.68765961 L3.29150188,1.17644646 C2.11694371,0.584275426 0.752795496,1.57222714 1.03836199,2.80831856 L2.41421191,8.76163568 C2.56115826,9.39698474 3.12520272,9.86733589 3.80603914,9.92229948 L12.5829895,10.6300762 C13.0587086,10.66854 13.0589336,11.3314244 12.5829895,11.3699953 L3.80547656,12.0789506 C3.12475265,12.1338071 2.56093323,12.6042654 2.41421191,13.2396144 L1.03836199,19.1918601 C0.752795496,20.4274158 2.11716874,21.4155818 3.29150188,20.8237322 L20.1701919,12.3127334 C21.2765652,11.7546333 21.2765652,10.2455454 20.170417,9.68765961" id="Fill-1"></path>
            </g>
        </g>
    </g>
</svg>